<mxfile host="65bd71144e">
    <diagram id="T9uuaTeBy4bPSP1g8a4x" name="Page-1">
        <mxGraphModel dx="1088" dy="825" grid="1" gridSize="10" guides="1" tooltips="1" connect="1" arrows="1" fold="1" page="1" pageScale="1" pageWidth="827" pageHeight="1169" background="#FFFFFF" math="0" shadow="0">
            <root>
                <mxCell id="0"/>
                <mxCell id="1" parent="0"/>
                <mxCell id="245" value="" style="points=[];aspect=fixed;html=1;align=center;shadow=0;dashed=0;image;image=img/lib/allied_telesis/computer_and_terminals/Personal_Computer.svg;" vertex="1" parent="1">
                    <mxGeometry x="120" y="80" width="44.26" height="60" as="geometry"/>
                </mxCell>
                <mxCell id="248" value="Source code &lt;br&gt;control system" style="rounded=0;whiteSpace=wrap;html=1;" vertex="1" parent="1">
                    <mxGeometry x="240" y="90" width="80" height="40" as="geometry"/>
                </mxCell>
                <mxCell id="250" value="" style="endArrow=block;html=1;endFill=1;startSize=3;endSize=3;" edge="1" parent="1">
                    <mxGeometry width="50" height="50" relative="1" as="geometry">
                        <mxPoint x="180" y="110" as="sourcePoint"/>
                        <mxPoint x="230" y="110" as="targetPoint"/>
                    </mxGeometry>
                </mxCell>
                <mxCell id="256" value="" style="endArrow=block;html=1;startSize=3;endSize=3;curved=1;endFill=1;" edge="1" parent="1">
                    <mxGeometry width="50" height="50" relative="1" as="geometry">
                        <mxPoint x="270" y="250" as="sourcePoint"/>
                        <mxPoint x="240" y="210" as="targetPoint"/>
                        <Array as="points">
                            <mxPoint x="240" y="250"/>
                        </Array>
                    </mxGeometry>
                </mxCell>
                <mxCell id="258" value="" style="endArrow=block;html=1;startSize=3;endSize=3;curved=1;endFill=1;" edge="1" parent="1">
                    <mxGeometry width="50" height="50" relative="1" as="geometry">
                        <mxPoint x="240" y="200" as="sourcePoint"/>
                        <mxPoint x="280" y="170" as="targetPoint"/>
                        <Array as="points">
                            <mxPoint x="240" y="170"/>
                        </Array>
                    </mxGeometry>
                </mxCell>
                <mxCell id="261" value="" style="endArrow=block;html=1;startSize=3;endSize=3;curved=1;endFill=1;" edge="1" parent="1">
                    <mxGeometry width="50" height="50" relative="1" as="geometry">
                        <mxPoint x="290" y="170" as="sourcePoint"/>
                        <mxPoint x="320" y="210" as="targetPoint"/>
                        <Array as="points">
                            <mxPoint x="320" y="170"/>
                        </Array>
                    </mxGeometry>
                </mxCell>
                <mxCell id="262" value="" style="endArrow=block;html=1;startSize=3;endSize=3;curved=1;endFill=1;" edge="1" parent="1">
                    <mxGeometry width="50" height="50" relative="1" as="geometry">
                        <mxPoint x="320" y="220" as="sourcePoint"/>
                        <mxPoint x="280" y="250" as="targetPoint"/>
                        <Array as="points">
                            <mxPoint x="320" y="250"/>
                        </Array>
                    </mxGeometry>
                </mxCell>
                <mxCell id="263" value="Continuous integration" style="rounded=0;whiteSpace=wrap;html=1;strokeColor=none;fillColor=none;" vertex="1" parent="1">
                    <mxGeometry x="240" y="170" width="80" height="80" as="geometry"/>
                </mxCell>
                <mxCell id="264" value="" style="endArrow=block;html=1;endFill=1;startSize=3;endSize=3;exitX=0;exitY=0.5;exitDx=0;exitDy=0;edgeStyle=orthogonalEdgeStyle;rounded=0;" edge="1" parent="1" source="266">
                    <mxGeometry width="50" height="50" relative="1" as="geometry">
                        <mxPoint x="180" y="210" as="sourcePoint"/>
                        <mxPoint x="140" y="150" as="targetPoint"/>
                    </mxGeometry>
                </mxCell>
                <mxCell id="266" value="Pass" style="rhombus;whiteSpace=wrap;html=1;fillColor=none;" vertex="1" parent="1">
                    <mxGeometry x="260" y="290" width="40" height="40" as="geometry"/>
                </mxCell>
                <mxCell id="270" style="edgeStyle=orthogonalEdgeStyle;rounded=0;html=1;exitX=0.5;exitY=1;exitDx=0;exitDy=0;entryX=0.5;entryY=0;entryDx=0;entryDy=0;endArrow=block;endFill=1;startSize=3;endSize=3;" edge="1" parent="1" source="266" target="269">
                    <mxGeometry relative="1" as="geometry">
                        <mxPoint x="280" y="340.00000000000006" as="sourcePoint"/>
                    </mxGeometry>
                </mxCell>
                <mxCell id="272" style="edgeStyle=orthogonalEdgeStyle;rounded=0;html=1;exitX=0.5;exitY=1;exitDx=0;exitDy=0;entryX=0.5;entryY=0;entryDx=0;entryDy=0;endArrow=block;endFill=1;startSize=3;endSize=3;" edge="1" parent="1" source="269" target="271">
                    <mxGeometry relative="1" as="geometry"/>
                </mxCell>
                <mxCell id="269" value="Source code &lt;br&gt;build and test" style="rounded=0;whiteSpace=wrap;html=1;" vertex="1" parent="1">
                    <mxGeometry x="240" y="360" width="80" height="40" as="geometry"/>
                </mxCell>
                <mxCell id="273" style="edgeStyle=orthogonalEdgeStyle;rounded=0;html=1;exitX=0;exitY=0.5;exitDx=0;exitDy=0;endArrow=block;endFill=1;startSize=3;endSize=3;" edge="1" parent="1" source="271">
                    <mxGeometry relative="1" as="geometry">
                        <mxPoint x="140" y="150" as="targetPoint"/>
                    </mxGeometry>
                </mxCell>
                <mxCell id="271" value="Pass" style="rhombus;whiteSpace=wrap;html=1;fillColor=none;" vertex="1" parent="1">
                    <mxGeometry x="260" y="430" width="40" height="40" as="geometry"/>
                </mxCell>
                <mxCell id="274" value="Notification" style="rounded=0;whiteSpace=wrap;html=1;fillColor=none;strokeColor=none;" vertex="1" parent="1">
                    <mxGeometry x="140" y="290" width="120" height="20" as="geometry"/>
                </mxCell>
                <mxCell id="275" value="Notification" style="rounded=0;whiteSpace=wrap;html=1;fillColor=none;strokeColor=none;" vertex="1" parent="1">
                    <mxGeometry x="140" y="425" width="120" height="20" as="geometry"/>
                </mxCell>
                <mxCell id="276" value="Yes" style="text;html=1;strokeColor=none;fillColor=none;align=center;verticalAlign=middle;whiteSpace=wrap;rounded=0;" vertex="1" parent="1">
                    <mxGeometry x="280" y="330" width="40" height="20" as="geometry"/>
                </mxCell>
                <mxCell id="277" value="Yes" style="text;html=1;strokeColor=none;fillColor=none;align=center;verticalAlign=middle;whiteSpace=wrap;rounded=0;" vertex="1" parent="1">
                    <mxGeometry x="280" y="470" width="40" height="20" as="geometry"/>
                </mxCell>
                <mxCell id="278" value="" style="endArrow=block;html=1;rounded=0;startSize=3;endSize=3;entryX=0.5;entryY=0;entryDx=0;entryDy=0;endFill=1;" edge="1" parent="1" target="266">
                    <mxGeometry width="50" height="50" relative="1" as="geometry">
                        <mxPoint x="280" y="260" as="sourcePoint"/>
                        <mxPoint x="290" y="280" as="targetPoint"/>
                    </mxGeometry>
                </mxCell>
                <mxCell id="279" value="" style="endArrow=block;html=1;rounded=0;startSize=3;endSize=3;endFill=1;exitX=0.5;exitY=1;exitDx=0;exitDy=0;" edge="1" parent="1" source="248">
                    <mxGeometry width="50" height="50" relative="1" as="geometry">
                        <mxPoint x="279.72000000000014" y="140" as="sourcePoint"/>
                        <mxPoint x="280" y="160" as="targetPoint"/>
                    </mxGeometry>
                </mxCell>
                <mxCell id="281" style="edgeStyle=orthogonalEdgeStyle;rounded=0;html=1;endArrow=block;endFill=1;startSize=3;endSize=3;exitX=0.5;exitY=1;exitDx=0;exitDy=0;" edge="1" parent="1" source="271">
                    <mxGeometry relative="1" as="geometry">
                        <mxPoint x="270" y="480" as="sourcePoint"/>
                        <mxPoint x="280" y="500" as="targetPoint"/>
                    </mxGeometry>
                </mxCell>
            </root>
        </mxGraphModel>
    </diagram>
</mxfile>